<?xml version="1.0" standalone="no"?>
<!DOCTYPE svg PUBLIC "-//W3C//DTD SVG 20010904//EN"
 "http://www.w3.org/TR/2001/REC-SVG-20010904/DTD/svg10.dtd">
<svg version="1.0" xmlns="http://www.w3.org/2000/svg"
 width="1024.000000pt" height="768.000000pt" viewBox="0 0 1024.000000 768.000000"
 preserveAspectRatio="xMidYMid meet">

<g transform="translate(0.000000,768.000000) scale(0.100000,-0.100000)"
fill="#000000" stroke="none">
<path d="M0 3840 l0 -3840 5120 0 5120 0 0 3840 0 3840 -5120 0 -5120 0 0
-3840z m5540 3546 c333 -52 562 -127 840 -273 183 -96 369 -222 515 -348 123
-106 136 -119 208 -205 40 -47 74 -87 77 -90 12 -12 110 -149 143 -202 52 -83
138 -250 176 -343 17 -44 36 -89 41 -100 89 -198 139 -664 101 -945 -29 -213
-86 -421 -165 -593 -20 -43 -36 -82 -36 -88 0 -5 21 -9 48 -9 l47 0 54 -182
c30 -101 98 -318 151 -483 115 -356 175 -554 169 -559 -2 -3 -70 -8 -151 -12
l-146 -7 -15 49 c-9 27 -26 78 -40 114 l-25 65 -185 3 -184 2 -26 -93 c-14
-51 -30 -105 -36 -119 l-10 -26 -160 -1 c-87 -1 -161 2 -164 6 -4 7 47 157 73
218 16 36 125 358 173 510 14 44 53 159 87 255 34 96 65 193 69 215 l7 40 117
3 118 3 18 42 c10 23 28 65 41 92 12 28 26 59 31 70 27 62 83 255 106 364 23
114 26 148 26 346 0 185 -3 241 -22 350 -49 277 -110 452 -246 700 -180 329
-405 570 -740 796 -130 87 -131 87 -260 154 -282 146 -532 222 -880 271 -132
18 -449 24 -555 11 -36 -5 -62 -6 -59 -2 28 28 492 28 669 1z m-700 -6 c0 -5
-3 -10 -7 -10 -40 0 -331 -70 -419 -101 -63 -22 -120 -39 -126 -37 -26 9 309
111 469 143 87 17 83 17 83 5z m-575 -159 c-6 -4 -57 -30 -115 -56 -58 -27
-140 -68 -182 -92 -43 -23 -79 -43 -82 -43 -10 0 -191 -125 -268 -186 -120
-94 -250 -223 -348 -344 -25 -30 -48 -57 -51 -60 -4 -3 -46 -63 -94 -135 -79
-119 -215 -376 -215 -408 0 -7 -4 -17 -9 -22 -17 -18 -90 -268 -111 -379 -45
-239 -48 -424 -10 -661 36 -221 83 -380 177 -592 34 -77 50 -103 64 -103 25 0
47 -51 135 -310 39 -118 88 -261 108 -318 28 -80 118 -362 182 -575 5 -16 -5
-17 -152 -15 l-157 3 -25 103 -25 102 -200 -2 -200 -3 -33 -94 c-19 -52 -34
-103 -34 -113 0 -10 -1 -18 -3 -18 -1 0 -17 4 -35 9 -18 6 -89 11 -158 12
l-125 2 6 31 c7 30 158 490 175 531 13 30 80 226 157 453 l68 202 131 0 c72 0
133 3 136 6 3 3 -12 47 -34 97 -89 203 -150 419 -184 647 -20 139 -15 413 11
555 34 186 59 273 147 499 6 16 33 73 59 128 105 215 242 401 439 599 227 228
484 402 781 527 80 34 88 36 74 23z m1171 -804 c1 -9 -3 -17 -9 -18 -7 0 -41
-1 -77 -2 l-65 -2 -3 -47 -3 -48 70 0 c67 0 71 -1 68 -22 -4 -20 -10 -22 -72
-23 l-69 0 1 -32 c1 -18 2 -47 2 -64 l1 -30 85 3 c83 3 85 3 85 -20 0 -24 0
-24 -115 -20 l-115 3 -3 167 -2 167 65 3 c126 6 153 3 156 -15z m-345 -16 c27
-33 24 -58 -11 -93 -17 -17 -30 -31 -28 -32 80 -34 88 -106 19 -153 -30 -20
-46 -23 -132 -23 l-98 0 0 166 -1 166 116 -4 c108 -3 117 -5 135 -27z m1010
-631 c1 -85 2 -267 3 -405 l1 -250 -70 0 -70 0 -3 183 -2 183 -158 -3 -157 -3
0 -175 0 -175 -70 -5 c-38 -3 -73 -4 -77 -2 -5 2 -8 183 -8 403 l0 399 75 0
75 0 0 -150 0 -150 160 0 161 0 -1 148 c-1 81 -1 151 0 155 0 4 32 7 70 5 l70
-2 1 -156z m532 132 c12 -40 90 -260 101 -287 8 -16 56 -137 109 -267 l95
-238 -82 0 -81 0 -31 88 -31 87 -139 2 c-77 1 -145 -2 -152 -6 -6 -3 -24 -43
-39 -86 l-28 -80 -77 -3 c-43 -2 -78 -1 -78 2 0 3 11 35 24 73 13 37 38 115
56 173 18 58 40 130 50 160 20 60 47 148 60 195 5 17 18 66 30 110 12 44 25
84 30 90 5 6 44 9 93 7 69 -3 86 -7 90 -20z m-2796 -57 c12 -38 73 -222 136
-408 62 -186 111 -339 108 -341 -3 -2 -38 -4 -78 -5 l-71 -2 -15 48 c-9 26
-21 67 -27 91 l-11 43 -146 -3 -146 -3 -31 -87 -31 -88 -82 0 -82 0 9 28 c4
15 22 68 40 117 17 50 73 218 126 375 52 157 97 291 99 298 3 9 28 12 92 10
l87 -3 23 -70z m525 -262 l3 -328 168 -3 167 -2 1 -33 c1 -17 2 -49 3 -69 l3
-37 -246 -3 c-135 -2 -247 -3 -247 -3 -1 0 -4 181 -8 403 l-7 402 80 0 81 0 2
-327z m875 298 c68 -30 118 -86 137 -152 21 -70 20 -107 -4 -171 -26 -68 -70
-114 -139 -146 -47 -22 -75 -27 -168 -30 l-113 -5 0 -132 0 -133 -75 -1 -75
-1 0 158 c0 87 -3 268 -7 401 l-6 243 199 -4 c182 -4 204 -6 251 -27z m-1284
-2050 c4 -185 7 -407 7 -493 l0 -158 211 0 211 0 -4 -110 c-2 -79 -7 -113 -17
-119 -18 -11 -154 -19 -462 -27 l-256 -7 -7 419 c-3 231 -9 510 -13 621 l-6
202 34 4 c19 2 93 4 165 4 l131 0 6 -336z m1200 324 c149 -31 252 -101 299
-202 86 -183 38 -404 -115 -524 -105 -84 -196 -114 -375 -125 l-113 -7 2 -174
c1 -95 -1 -176 -4 -179 -3 -3 -72 -8 -154 -11 -118 -4 -151 -2 -160 9 -12 15
-28 1209 -17 1221 4 4 134 7 288 7 207 0 299 -4 349 -15z m810 -143 c4 -87 7
-190 7 -230 l0 -72 168 2 167 3 -3 228 -4 227 166 0 166 0 0 -398 c0 -219 3
-402 6 -405 4 -4 21 3 38 15 28 18 27 17 -8 -17 l-38 -38 5 -198 5 -198 -160
-3 c-88 -2 -162 -1 -164 1 -2 2 -4 121 -4 263 l0 258 -166 -2 -165 -3 1 -256
1 -256 -162 -7 c-89 -4 -163 -5 -165 -3 -2 2 -6 160 -9 353 -3 192 -7 469 -10
615 -2 146 -2 269 2 272 3 3 76 6 163 6 l157 -1 6 -156z m-2813 -64 c0 -6 -7
-5 -15 2 -8 7 -15 17 -15 22 0 6 7 5 15 -2 8 -7 15 -17 15 -22z m28 -38 c7
-11 11 -20 9 -20 -2 0 -12 9 -22 20 -10 11 -14 20 -9 20 5 0 15 -9 22 -20z"/>
<path d="M7293 3652 c-29 -108 -55 -209 -59 -224 l-6 -28 121 0 121 0 -6 28
c-12 51 -113 414 -116 418 -2 1 -27 -86 -55 -194z"/>
<path d="M2860 3772 c0 -10 -24 -103 -54 -208 -30 -105 -56 -197 -58 -205 -2
-11 22 -14 140 -17 78 -1 142 0 142 2 0 3 -32 96 -71 208 -39 112 -73 211 -76
221 -7 22 -23 22 -23 -1z"/>
<path d="M4902 6348 l3 -53 54 2 c58 3 76 12 84 44 10 36 -25 59 -89 59 l-55
0 3 -52z"/>
<path d="M4902 6198 l3 -53 64 1 c67 1 91 16 91 55 0 35 -28 49 -96 49 l-65 0
3 -52z"/>
<path d="M6507 5592 c-20 -87 -37 -159 -37 -162 0 -3 42 -5 93 -3 68 2 91 6
88 15 -16 55 -99 300 -102 303 -2 1 -21 -67 -42 -153z"/>
<path d="M3727 5740 c-16 -43 -99 -331 -96 -333 2 -1 50 -1 107 1 99 3 102 4
97 25 -22 87 -104 319 -108 307z"/>
<path d="M4952 5643 l3 -138 85 1 c106 0 139 16 170 79 30 62 21 118 -27 163
-34 32 -35 32 -134 32 l-100 0 3 -137z"/>
<path d="M4852 3749 l3 -184 83 2 c159 3 251 79 238 196 -7 66 -33 107 -87
137 -36 20 -61 25 -142 28 l-99 4 4 -183z"/>
</g>
</svg>
